<?xml version="1.0" encoding="UTF-8"?>
<!-- 此文件由AI（GitHub Copilot）生成 -->
<svg width="120" height="120" viewBox="0 0 120 120" fill="none" xmlns="http://www.w3.org/2000/svg">
  <!-- 背景圆形 -->
  <circle cx="60" cy="60" r="56" fill="#F0F4F9" stroke="#3B82F6" stroke-width="3"/>
  
  <!-- 文档图标 -->
  <path d="M40 30H80C83.3137 30 86 32.6863 86 36V84C86 87.3137 83.3137 90 80 90H40C36.6863 90 34 87.3137 34 84V36C34 32.6863 36.6863 30 40 30Z" fill="white" stroke="#3B82F6" stroke-width="2.5"/>
  
  <!-- 文档线条 -->
  <line x1="44" y1="45" x2="76" y2="45" stroke="#3B82F6" stroke-width="2.5" stroke-linecap="round"/>
  <line x1="44" y1="55" x2="76" y2="55" stroke="#3B82F6" stroke-width="2.5" stroke-linecap="round"/>
  <line x1="44" y1="65" x2="66" y2="65" stroke="#3B82F6" stroke-width="2.5" stroke-linecap="round"/>
  
  <!-- PRD 文字 -->
  <path d="M47 80H51.056L51.028 76.72H54.292C57.276 76.72 59.224 74.856 59.224 71.928C59.224 69.056 57.304 67.22 54.208 67.22H47V80ZM51.028 73.428V70.54H53.244C54.46 70.54 55.14 71.068 55.14 71.984C55.14 72.9 54.46 73.428 53.244 73.428H51.028Z" fill="#3B82F6"/>
  <path d="M60.6062 80H64.6622V76.58H65.9062C68.8902 76.58 70.8382 74.744 70.8382 71.9C70.8382 69.084 68.9182 67.22 65.9342 67.22H60.6062V80ZM64.6622 73.428V70.372H65.5782C66.7942 70.372 66.7942 73.428 65.5782 73.428H64.6622Z" fill="#3B82F6"/>
  <path d="M72.1735 80H82.0535V76.608H76.2295V75.336H81.3455V72.144H76.2295V70.612H81.9135V67.22H72.1735V80Z" fill="#3B82F6"/>
  
  <!-- 创新元素 - 灯泡 -->
  <circle cx="86" cy="36" r="14" fill="#FFEDD5" stroke="#F97316" stroke-width="2"/>
  <path d="M86 28V32" stroke="#F97316" stroke-width="2" stroke-linecap="round"/>
  <path d="M86 40V44" stroke="#F97316" stroke-width="2" stroke-linecap="round"/>
  <path d="M94 36H90" stroke="#F97316" stroke-width="2" stroke-linecap="round"/>
  <path d="M82 36H78" stroke="#F97316" stroke-width="2" stroke-linecap="round"/>
  <path d="M91.6569 30.3431L88.8284 33.1716" stroke="#F97316" stroke-width="2" stroke-linecap="round"/>
  <path d="M83.1716 38.8284L80.3431 41.6569" stroke="#F97316" stroke-width="2" stroke-linecap="round"/>
  <path d="M91.6569 41.6569L88.8284 38.8284" stroke="#F97316" stroke-width="2" stroke-linecap="round"/>
  <path d="M83.1716 33.1716L80.3431 30.3431" stroke="#F97316" stroke-width="2" stroke-linecap="round"/>
</svg>
